<svg viewBox="0 0 900 700" xmlns="http://www.w3.org/2000/svg" style="width:100%;height:auto;display:block">
<path d="M537,443L536,450L536,442L536,450L536,444L534,451L532,452L533,447L530,451L532,440L533,445L533,439L537,443Z M703,484L721,483L725,486L711,490L694,488L703,484Z M744,432L733,441L734,450L732,449L729,463L717,472L717,470L707,474L675,491L672,501L673,508L665,516L664,514L659,534L644,535L658,535L651,560L657,554L665,528L681,508L695,499L705,502L701,502L707,505L700,517L693,517L682,529L679,528L672,532L674,537L670,543L667,542L664,556L665,577L658,582L658,585L625,598L629,593L626,588L606,596L591,590L578,590L565,577L552,524L555,527L550,515L553,514L558,520L558,514L554,511L558,503L550,492L545,482L547,480L543,477L544,475L542,476L537,469L551,455L556,436L548,418L531,407L529,402L534,394L532,389L536,390L533,385L537,380L531,383L531,376L527,375L529,372L524,374L526,361L522,359L519,349L522,345L535,346L534,348L537,345L543,346L541,345L547,339L556,342L556,346L560,344L561,349L565,347L564,350L568,353L578,350L581,354L582,349L588,364L578,368L587,365L591,375L595,373L596,382L592,379L594,382L591,384L595,386L601,378L607,381L608,389L603,396L609,389L608,380L610,388L611,381L614,389L618,371L623,373L624,377L620,367L624,365L620,365L620,361L622,362L619,359L624,359L617,356L621,353L618,346L620,344L618,346L624,356L627,355L631,361L628,365L639,362L635,365L638,367L637,375L645,377L652,398L654,401L659,400L658,403L666,407L664,411L667,420L651,426L638,422L643,430L635,428L641,433L637,436L640,440L639,443L651,450L653,460L657,458L656,453L659,454L663,465L663,462L667,464L673,459L682,466L682,455L676,446L678,440L684,445L680,451L686,456L739,424L744,432Z" fill="#e0d5c8" stroke="#a09080" stroke-width="0.5"/><path d="M620,344L620,350L625,347L629,354L631,353L630,356L635,355L633,361L639,357L639,360L644,361L641,369L647,363L646,368L649,366L645,372L650,366L650,370L654,368L658,371L654,376L666,377L664,383L667,384L660,386L663,383L659,386L667,385L665,389L670,389L667,391L673,388L673,392L680,391L680,393L681,391L683,394L683,390L686,396L687,394L687,402L691,394L692,397L695,395L695,402L696,392L697,397L698,392L701,396L715,392L703,410L711,402L701,416L703,419L695,420L704,419L702,423L705,422L709,408L716,401L711,402L718,398L724,401L722,406L725,407L729,398L728,401L734,399L732,400L739,401L737,406L744,410L739,413L746,411L742,414L749,415L745,431L739,424L686,456L680,451L684,445L678,440L676,446L682,455L682,466L673,459L668,464L663,462L662,464L656,453L657,458L653,460L651,450L639,443L640,440L637,436L641,433L635,428L643,430L638,422L651,426L667,420L664,411L666,407L658,403L659,400L654,401L652,398L645,377L637,375L638,367L635,365L639,362L628,365L631,361L627,355L624,356L618,346L620,344Z M758,432L758,435L756,433L762,454L763,442L764,446L770,441L767,449L769,447L769,452L774,446L777,448L776,445L778,452L782,441L784,444L785,439L792,438L790,448L796,446L794,453L802,443L798,455L802,454L801,458L806,461L805,453L808,449L809,457L812,459L811,452L815,455L819,468L815,471L810,464L808,473L806,463L798,460L801,466L800,469L799,464L797,469L797,479L792,482L796,465L790,469L791,474L790,472L788,476L788,473L786,476L788,471L786,473L785,468L784,474L782,474L780,479L765,485L757,493L754,489L759,475L750,480L752,475L752,478L755,477L753,467L758,467L752,464L752,460L756,460L752,459L750,442L748,443L750,437L748,437L748,431L755,421L757,425L752,427L757,427L758,432Z" fill="#d8cdbf" stroke="#a09080" stroke-width="0.5"/><path d="M83,413L86,405L89,408L87,410L91,411L85,413L86,416L92,411L96,412L87,422L82,421L83,413Z M115,430L110,433L112,430L115,430Z M109,445L111,441L108,445L106,442L110,439L109,437L106,439L110,435L112,439L109,445Z M86,440L83,441L81,421L88,423L88,427L85,425L87,428L84,427L86,440Z M114,457L110,458L118,454L114,457Z M101,490L104,486L96,483L99,478L102,482L104,479L98,478L97,472L102,473L119,491L120,506L126,512L127,526L123,527L112,514L118,509L116,512L110,510L107,506L111,506L110,503L107,504L109,501L103,499L109,497L105,495L105,490L101,490Z M189,541L133,519L132,515L137,514L133,514L136,509L130,512L127,506L129,505L129,509L132,507L129,505L133,500L130,504L126,504L123,499L126,494L130,493L123,492L129,485L122,491L119,489L122,486L118,488L113,485L119,485L123,479L117,484L113,479L117,479L115,476L112,478L108,475L109,477L106,474L107,471L113,476L115,474L106,471L106,468L112,469L106,467L111,464L119,467L112,464L114,462L108,466L109,459L118,456L120,463L122,457L119,455L123,449L114,455L112,455L114,451L111,451L114,450L108,451L115,444L111,444L113,432L119,441L114,431L119,430L119,427L109,433L107,421L109,419L110,423L110,419L114,420L108,419L107,414L110,411L111,417L110,411L113,413L113,409L118,409L116,407L123,403L121,403L122,400L115,407L123,392L115,378L119,347L117,321L110,320L105,324L97,324L98,303L130,325L187,357L221,371L186,466L194,475L195,488L197,487L198,492L202,493L203,501L206,501L215,523L216,532L214,538L218,549L189,541Z" fill="#d8cdbf" stroke="#a09080" stroke-width="0.5"/><path d="M352,141L352,152L356,151L356,154L358,148L361,152L358,163L353,165L347,162L342,165L344,154L348,156L349,153L345,149L348,147L347,140L352,135L352,141Z M334,201L335,193L340,201L341,216L344,212L344,189L349,192L350,190L354,195L357,219L355,226L359,234L362,236L362,234L368,243L371,243L371,250L369,246L367,250L365,246L363,251L358,249L358,258L365,253L366,260L357,263L348,260L349,257L342,255L341,249L337,256L327,259L303,258L305,247L291,239L291,229L311,235L312,238L313,236L326,238L334,201Z M413,251L426,253L424,257L420,255L426,262L428,272L431,256L438,261L441,269L438,271L439,276L447,288L447,284L450,284L452,261L457,261L454,258L457,256L453,255L450,244L467,244L462,247L473,250L470,256L474,255L475,258L469,263L480,276L480,284L470,297L466,289L465,292L460,287L462,288L459,290L462,289L470,299L464,297L466,300L460,299L458,295L451,297L457,302L450,316L435,308L424,309L433,310L439,317L452,317L453,320L447,335L444,338L440,336L442,339L438,337L439,339L437,335L434,337L437,340L434,339L435,345L420,343L411,337L412,342L422,344L420,347L424,344L432,349L433,354L428,358L420,358L425,361L420,362L421,369L416,366L419,369L414,371L415,373L413,372L416,376L410,382L405,403L352,401L358,335L312,319L307,307L296,304L262,252L271,229L282,243L291,249L290,246L292,246L298,253L298,260L292,259L289,263L291,265L308,272L319,269L320,274L323,275L324,281L326,277L328,285L324,286L330,298L328,291L329,286L329,290L330,288L332,291L331,270L339,271L344,264L339,265L339,268L332,266L333,269L326,266L330,262L342,258L349,274L356,273L361,281L370,279L380,282L383,280L382,276L386,282L390,283L389,279L387,277L385,280L382,271L389,270L390,273L394,272L392,277L397,273L394,286L396,290L399,287L397,291L400,290L400,294L394,292L397,300L396,294L401,294L399,276L403,276L411,267L409,268L408,260L407,265L404,266L407,259L405,257L409,255L408,259L410,254L397,250L394,244L395,237L397,238L393,233L394,226L396,224L399,226L397,221L403,217L400,215L403,215L404,220L407,218L411,232L419,243L415,242L414,244L417,245L413,251Z M592,247L587,249L592,252L585,255L593,257L586,259L593,261L589,261L592,265L585,263L593,277L589,274L588,277L586,276L585,272L586,277L582,275L584,272L580,274L581,270L578,272L580,269L576,271L578,259L572,269L571,262L570,267L561,262L562,265L558,265L562,265L562,268L557,267L565,273L561,275L556,271L555,273L560,273L564,281L566,277L576,288L574,284L579,288L579,285L582,287L581,284L583,289L587,288L585,292L593,293L592,297L596,298L598,304L590,298L601,308L596,309L600,315L597,310L596,313L589,310L592,312L590,312L585,308L588,313L575,306L579,311L569,309L579,316L582,314L581,317L582,315L598,322L600,327L581,329L574,327L573,324L562,326L561,322L558,325L551,321L556,316L551,315L549,318L549,314L547,317L539,312L538,306L534,312L533,306L532,309L529,305L527,307L531,310L531,313L523,312L525,315L520,319L511,319L507,314L511,306L509,301L520,302L525,309L524,303L519,301L533,294L523,286L530,265L519,250L517,253L515,251L514,247L512,247L513,250L507,247L508,243L499,251L498,246L502,242L495,238L497,236L492,238L492,233L490,237L488,230L484,231L479,225L477,230L481,230L483,237L468,236L473,242L461,235L469,240L453,239L448,242L444,239L444,234L443,238L440,236L441,238L435,239L427,227L440,227L425,222L426,193L432,185L443,183L437,200L441,212L450,221L441,227L450,223L451,227L450,215L442,211L444,207L451,209L446,206L448,204L443,203L442,197L449,198L442,193L450,194L443,190L446,191L447,187L449,189L447,186L457,181L466,195L462,203L465,199L466,209L467,201L470,203L468,198L470,202L471,199L473,200L473,205L477,206L474,202L480,207L473,199L482,200L475,198L474,195L479,191L485,194L488,192L491,196L486,203L490,198L489,205L491,198L495,197L496,201L491,205L494,204L492,207L495,204L495,212L495,204L497,202L498,205L498,201L498,207L499,210L500,203L501,212L502,207L504,212L504,201L513,204L508,213L510,212L509,216L516,206L517,211L514,218L515,220L517,215L518,223L517,213L520,207L520,214L523,208L530,210L524,220L524,223L530,215L528,226L532,212L538,215L540,218L528,227L534,224L545,224L544,227L534,228L539,228L535,230L537,229L536,233L538,229L542,230L539,232L543,234L535,236L543,235L539,238L544,237L545,239L545,236L547,239L551,236L546,241L550,238L548,242L550,239L554,242L555,239L555,244L557,244L557,238L560,246L559,240L560,239L564,244L561,240L564,237L564,243L566,239L573,245L568,246L571,246L569,249L573,245L571,251L576,245L576,249L577,242L577,251L578,249L580,252L581,247L583,251L582,247L585,248L584,243L592,247Z M455,37L458,37L455,42L461,35L472,40L469,49L462,55L458,54L465,54L460,63L470,52L465,73L461,71L465,76L459,77L460,79L464,77L465,82L462,85L454,85L459,85L460,88L456,92L450,91L454,93L448,94L458,93L459,95L447,99L450,99L450,103L453,98L456,98L455,100L459,99L461,102L455,105L461,106L456,110L460,110L460,113L453,114L456,120L454,125L447,126L442,122L446,126L444,129L446,127L449,130L453,126L456,132L457,128L459,136L450,144L450,140L442,135L445,141L442,141L440,136L442,142L437,139L438,142L435,140L438,144L431,144L429,140L430,145L426,141L426,145L423,145L422,138L423,145L422,142L421,144L419,138L428,132L424,130L422,122L427,122L430,128L435,129L438,128L440,116L436,126L433,126L434,122L431,124L431,121L434,120L430,120L434,116L431,116L431,110L430,118L427,118L428,114L423,118L425,108L429,105L438,109L435,105L439,104L439,101L437,104L430,103L434,102L423,93L423,90L426,91L423,90L422,86L429,85L437,94L440,93L442,91L437,92L431,84L443,77L438,78L446,72L440,73L443,64L437,69L439,73L435,78L430,81L433,76L429,79L429,76L428,81L422,82L422,76L430,71L423,74L419,81L413,78L424,71L413,76L411,74L414,73L411,72L418,69L410,71L412,68L406,68L415,61L423,62L417,59L421,54L426,59L429,59L426,56L436,61L426,55L428,53L426,51L430,52L428,48L434,49L429,47L435,45L440,50L441,48L436,43L441,42L446,45L443,42L444,39L449,41L448,38L455,37Z M394,137L404,138L405,146L407,143L412,141L416,144L413,145L420,146L418,149L412,148L418,150L414,151L414,154L418,151L423,160L424,156L428,159L429,156L432,160L441,151L451,150L458,153L456,160L461,161L457,161L459,167L453,170L449,170L445,165L446,170L441,172L440,169L439,172L438,169L438,172L426,174L426,168L421,174L416,172L417,169L416,173L414,172L407,147L399,149L401,147L393,141L395,141L394,137Z M457,327L459,305L465,316L466,311L487,323L489,328L487,331L494,329L493,327L499,332L495,338L485,336L485,333L480,333L480,329L472,345L467,349L464,339L454,343L460,334L457,327Z M401,76L404,75L401,72L406,74L417,89L416,85L419,84L421,97L424,95L425,98L426,95L429,100L423,104L422,110L421,104L420,106L419,118L415,112L417,118L415,116L414,119L409,118L406,114L410,113L405,113L402,107L413,102L406,103L410,100L405,99L403,103L397,101L401,95L397,97L394,90L401,92L401,89L398,90L395,87L398,87L396,83L402,84L398,80L401,76Z M375,193L372,190L376,189L378,192L375,187L379,187L379,184L383,188L389,185L392,187L389,191L391,193L385,199L386,201L391,199L391,205L394,203L394,217L389,221L386,220L386,216L387,222L383,226L367,202L370,196L373,202L377,202L377,195L380,195L375,193Z M398,194L398,187L402,189L399,185L402,182L420,184L414,202L404,202L408,207L405,215L400,215L402,212L398,194Z M384,152L379,144L383,142L385,146L388,142L390,145L389,156L392,162L390,159L389,167L379,167L381,164L379,160L385,157L371,158L373,153L378,155L375,151L376,144L381,153L384,152Z M377,260L384,257L383,252L386,255L386,247L395,257L396,261L396,258L397,264L401,264L394,270L381,262L379,264L377,260Z M372,111L374,109L372,105L369,108L369,100L376,102L377,108L379,105L383,109L386,124L381,123L380,118L375,115L370,116L368,112L373,113L372,111Z M460,180L474,179L483,188L468,194L461,186L460,180Z M511,257L512,269L504,274L500,267L501,258L506,255L511,257Z M397,170L394,168L396,162L403,159L406,163L406,172L402,174L397,170Z M489,347L492,351L486,360L481,362L479,358L481,350L489,347Z M390,109L400,116L399,122L394,125L391,121L394,120L389,114L390,109Z M356,197L350,187L352,184L360,187L356,197Z M511,361L510,365L506,361L505,355L508,351L511,353L511,361Z M530,494L535,501L522,499L530,494Z M469,302L474,307L468,306L465,301L469,302Z M406,126L404,130L395,128L398,125L406,126Z M518,257L521,260L513,259L514,255L518,257Z M513,333L517,333L518,336L516,338L511,335L513,333Z M479,240L481,240L479,244L474,242L479,240Z M416,128L415,133L412,127L416,128Z M390,182L386,186L382,185L390,182Z M365,159L367,164L364,165L362,163L365,159Z M449,271L449,278L446,273L447,269L449,271Z M565,327L568,330L560,327L565,327Z M368,140L371,144L369,146L366,145L368,140Z M463,303L466,310L462,307L463,303Z M610,327L611,331L605,329L610,327Z M388,97L385,93L386,89L388,97Z M372,147L372,150L366,149L372,147Z M508,249L511,254L506,252L508,249Z M596,352L598,354L595,358L596,352Z" fill="#cfc3b3" stroke="#a09080" stroke-width="0.5"/><path d="M353,106L353,112L343,111L353,106Z M352,118L348,119L350,122L347,125L343,126L340,122L341,116L350,115L352,118Z M342,165L334,168L327,168L324,162L336,160L339,157L327,157L331,153L329,151L323,158L323,154L320,157L320,153L315,152L317,148L326,147L318,146L320,143L328,144L321,142L323,138L329,140L326,138L328,135L337,142L339,153L344,154L342,165Z M289,229L305,228L320,232L309,223L292,219L290,214L293,211L308,209L292,206L296,203L291,203L291,200L298,194L297,190L318,182L319,186L314,194L320,194L323,189L329,195L325,203L331,198L334,201L326,238L313,236L312,238L311,235L291,229L292,235L289,229Z M352,401L293,392L221,371L194,359L196,344L180,340L183,329L179,316L175,313L180,299L178,294L182,293L182,287L182,275L177,274L179,272L177,266L188,251L181,247L189,232L178,225L193,200L197,206L197,202L201,204L201,209L202,203L207,201L235,200L233,204L209,207L206,210L207,213L207,209L210,212L211,208L218,206L222,206L219,208L222,205L221,208L223,205L220,212L227,206L236,206L233,210L239,205L244,205L242,202L244,199L247,223L256,213L256,221L252,224L257,226L262,221L271,228L262,252L296,304L307,307L312,319L358,335L352,401Z M300,166L302,163L302,167L306,164L310,166L315,180L289,191L283,201L269,203L269,193L267,186L263,184L283,163L283,153L297,155L302,163L300,166Z M328,126L328,131L321,136L319,133L322,127L314,136L313,132L310,139L308,139L308,133L307,136L301,133L303,128L307,128L320,119L327,121L330,118L332,123L328,126Z M197,200L199,196L200,200L200,196L207,198L209,194L211,198L202,203L201,209L201,203L197,200Z M319,138L314,145L311,144L319,138Z M337,118L336,114L339,113L340,117L337,118Z" fill="#cfc3b3" stroke="#a09080" stroke-width="0.5"/><path d="M670,543L674,537L672,532L674,530L682,529L690,521L700,524L706,518L708,524L706,530L711,528L719,538L728,536L724,544L718,541L722,545L715,557L710,558L711,555L709,563L700,566L696,560L692,561L683,541L677,539L670,543Z" fill="#e0d5c8" stroke="#a09080" stroke-width="0.5"/><path d="M757,518L757,515L754,524L756,521L755,527L759,525L760,519L757,522L758,515L760,517L764,514L766,517L761,527L755,530L749,525L752,506L757,518Z M726,539L735,538L740,535L741,537L747,529L749,532L756,530L755,534L760,532L747,549L739,554L741,557L737,555L736,559L733,559L736,562L733,572L726,580L723,577L721,579L718,575L718,567L716,571L716,569L726,550L732,553L730,550L737,544L722,552L726,539Z" fill="#d8cdbf" stroke="#a09080" stroke-width="0.5"/><path d="M352,401L346,466L343,572L257,559L293,392L352,401Z" fill="#e8ddd0" stroke="#a09080" stroke-width="0.5"/><path d="M217,549L214,538L216,532L215,523L206,501L203,501L202,493L198,492L197,487L195,488L194,475L186,466L221,371L293,392L257,559L217,549Z" fill="#e0d5c8" stroke="#a09080" stroke-width="0.5"/><path d="M724,533L721,530L718,531L719,524L723,532L742,522L738,533L733,531L734,529L732,533L724,533Z" fill="#e0d5c8" stroke="#a09080" stroke-width="0.5"/><path d="M195,360L123,321L98,303L101,298L94,296L89,290L181,176L188,183L187,188L193,199L178,225L189,232L181,247L188,251L177,266L179,272L177,274L182,275L182,287L182,293L178,294L180,299L175,313L179,316L183,329L180,340L196,344L195,360Z" fill="#cfc3b3" stroke="#a09080" stroke-width="0.5"/><path d="M352,401L405,403L407,413L404,418L409,423L410,422L409,431L411,422L418,423L425,444L422,451L437,445L452,449L417,501L404,515L405,574L343,572L346,466L352,401Z" fill="#d4a843" stroke="#8b7355" stroke-width="1.5"/><path d="M550,517L552,524L550,521L550,517Z M552,524L565,577L575,589L600,592L606,596L612,596L623,588L629,593L615,611L599,620L604,617L608,620L598,621L581,632L578,637L586,636L589,641L573,650L577,650L563,651L552,665L545,664L545,660L552,658L549,656L550,650L557,642L554,631L558,622L551,614L560,616L559,620L561,619L561,622L564,619L571,622L569,616L574,616L559,602L518,602L518,595L514,595L515,590L509,586L510,580L500,581L492,570L474,569L475,575L472,578L472,572L470,579L468,580L470,576L466,578L463,586L450,586L449,583L442,587L437,582L433,585L427,579L419,581L411,578L408,569L405,568L404,515L417,501L452,449L463,455L467,461L489,468L487,474L490,469L513,467L520,500L530,508L527,511L530,509L540,515L543,520L538,527L543,521L552,524Z M536,606L540,608L542,604L550,606L548,610L549,608L546,610L533,608L536,606Z" fill="#e0d5c8" stroke="#a09080" stroke-width="0.5"/>
<circle cx="349" cy="486" r="5" fill="#E63E21" stroke="#fff" stroke-width="2"/>
<circle cx="349" cy="486" r="11" fill="none" stroke="#E63E21" stroke-width="1" opacity="0.4">
<animate attributeName="r" from="8" to="16" dur="2s" repeatCount="indefinite"/>
<animate attributeName="opacity" from="0.5" to="0" dur="2s" repeatCount="indefinite"/>
</circle>
<text x="349" y="468" text-anchor="middle" font-family="Poppins,sans-serif" font-size="11" font-weight="600" fill="#1D0E03">Cranberry Portage</text>
</svg>